# xmcd CD database file
#
# Track frame offsets:
#	150
#	20880
#	35455
#	85408
#	105537
#	200314
#	213531
#
# Disc length: 2966 seconds
#
# Revision: 0
# Processed by: cddbd v1.5.2PL0 Copyright (c) Steve Scherf et al.
# Submitted via: CDex 1.51
#
DISCID=5d0b9407
DTITLE=Peter Kowald - Was Da Ist (live)
DYEAR=2000
DGENRE=Jazz
TTITLE0=Part A
TTITLE1=Part B
TTITLE2=Part C
TTITLE3=Part D
TTITLE4=Part E
TTITLE5=Part F
TTITLE6=Part G
EXTD=YEAR: 2000
EXTT0=
EXTT1=
EXTT2=
EXTT3=
EXTT4=
EXTT5=
EXTT6=
PLAYORDER=
